<?xml version="1.0" encoding="utf-8"?>
<svg version="1.1" id="Layer_1" xmlns="http://www.w3.org/2000/svg" xmlns:xlink="http://www.w3.org/1999/xlink" x="0px" y="0px"
	 viewBox="0 0 512 512" style="enable-background:new 0 0 512 512;" xml:space="preserve">
<style type="text/css">
	.st0{fill:#26B99A;}
	.st1{fill:#14A085;}
	.st2{fill:#81CCB8;}
	.st3{fill:#FFFFFF;}
	.st4{fill:#35495E;}
</style>
<g>
	<path class="st0" d="M247.4,359.2c0,17.5,14.2,31.8,31.8,31.8h143.5l0,0c23.9-0.9,42.9-20.5,42.9-44.6c0-24.7-20-44.7-44.7-44.7
		l0,0c1.2-28.5-21.6-52-49.8-52c-23.8,0-43.7,16.7-48.7,39c-24.4-5.9-47.7,13.6-45.9,38.9C260.1,329,247.4,342.6,247.4,359.2z"/>
	<g>
		<g>
			<path class="st1" d="M276.4,327.6c-16.3,1.4-29,15-29,31.6c0,17.5,14.2,31.8,31.8,31.8h0.1c-9-5.6-14.9-15.6-14.9-26.9
				c0-16.6,12.8-30.3,29-31.6c-1.8-25.3,21.5-44.8,45.9-38.9c5-22.3,24.9-39,48.7-39c1.7,0,3.4,0.1,5.1,0.3
				c-6.6-3.3-14.1-5.1-22-5.1c-23.8,0-43.7,16.7-48.7,39C297.9,282.8,274.6,302.3,276.4,327.6L276.4,327.6z"/>
		</g>
	</g>
	<path id="Shape" class="st1" d="M512,468.6V512H182.2c-67.1,0-121.5-54.4-121.5-121.5V216.9c0-52.7,42.7-95.5,95.5-95.5
		s95.5,42.7,95.5,95.5v130.2h138.8c32.2,0,63.1,12.8,85.9,35.6S512,436.4,512,468.6z"/>
	<path id="Shape_1_" class="st0" d="M512,468.6v26H182.2c-67.1,0-121.5-54.4-121.5-121.5V216.9c0-52.7,42.7-95.5,95.5-95.5
		s95.5,42.7,95.5,95.5v130.2h138.8c32.2,0,63.1,12.8,85.9,35.6S512,436.4,512,468.6z"/>
	<path id="Shape_2_" class="st2" d="M95.5,260.3c-4.8,0-8.7-3.9-8.7-8.7V243c0-4.8,3.9-8.7,8.7-8.7s8.7,3.9,8.7,8.7v8.7
		C104.1,256.5,100.3,260.3,95.5,260.3z"/>
	<path id="Shape_3_" class="st2" d="M95.5,407.9c-4.8,0-8.7-3.9-8.7-8.7V286.4c0-4.8,3.9-8.7,8.7-8.7s8.7,3.9,8.7,8.7v112.8
		C104.1,404,100.3,407.9,95.5,407.9z"/>
	<g>
		<path id="Shape_4_" class="st1" d="M112.8,182.2c-3.4,0-6.5-2-7.9-5l-30.3-65.5c-1.3-2.8-1.1-6.1,0.7-8.7c1.8-2.6,4.8-4,7.9-3.8
			s5.9,2.1,7.2,5l30.3,65.5c1.4,2.7,1.2,5.9-0.4,8.5C118.7,180.7,115.9,182.3,112.8,182.2L112.8,182.2z"/>
		<path id="Shape_5_" class="st1" d="M199.6,182.2c-3,0-5.7-1.5-7.3-4s-1.8-5.6-0.6-8.3l30.3-65.8c1.3-2.8,4-4.7,7.1-5
			s6.1,1.1,7.9,3.6c1.8,2.5,2.1,5.8,0.8,8.7l-30.3,65.5C206.1,180.1,203,182.2,199.6,182.2z"/>
		<circle id="Oval" class="st1" cx="60.7" cy="60.7" r="60.7"/>
		<circle id="Oval_1_" class="st1" cx="251.7" cy="60.7" r="60.7"/>
	</g>
	<circle id="Oval_2_" class="st3" cx="60.7" cy="60.7" r="52.1"/>
	<circle id="Oval_3_" class="st3" cx="251.7" cy="60.7" r="52.1"/>
	<path id="Shape_6_" class="st4" d="M69.4,78.1c-9.6,0-17.4-7.8-17.4-17.4s7.8-17.4,17.4-17.4s17.4,7.8,17.4,17.4
		c0,4.6-1.8,9-5.1,12.3C78.4,76.3,74,78.1,69.4,78.1z"/>
	<path id="Shape_7_" class="st3" d="M52.1,60.7c-9.6,0-17.4-7.8-17.4-17.4S42.5,26,52.1,26s17.4,7.8,17.4,17.4c0,4.6-1.8,9-5.1,12.3
		C61.1,58.9,56.7,60.7,52.1,60.7z"/>
	<path id="Shape_8_" class="st4" d="M243,78.1c-9.6,0-17.4-7.8-17.4-17.4s7.8-17.4,17.4-17.4c9.6,0,17.4,7.8,17.4,17.4
		c0,4.6-1.8,9-5.1,12.3C252,76.3,247.6,78.1,243,78.1z"/>
	<path id="Shape_9_" class="st3" d="M225.6,60.7c-9.6,0-17.4-7.8-17.4-17.4S216,26,225.6,26S243,33.8,243,43.4c0,4.6-1.8,9-5.1,12.3
		C234.6,58.9,230.2,60.7,225.6,60.7z"/>
	<path id="Shape_10_" class="st1" d="M329.8,433.9c0,4.8-3.9,8.7-8.7,8.7h-8.7c-33.5,0-60.7-27.2-60.7-60.7v-34.7H269v34.7
		c0,11.5,4.6,22.5,12.7,30.7s19.2,12.7,30.7,12.7h8.7C325.9,425.2,329.8,429.1,329.8,433.9z"/>
</g>
</svg>
